<svg class="svg-icon" style="width: 1em;height: 1em;vertical-align: middle;fill: currentColor;overflow: hidden;" viewBox="0 0 1024 1024" version="1.1" xmlns="http://www.w3.org/2000/svg"><path d="M459.48537447 722.67128367a278.69940059 278.69940059 0 1 1 278.69940058-278.69940058 279.45948978 279.45948978 0 0 1-278.69940058 278.69940058zM459.48537447 189.72202106a253.36309187 253.36309187 0 1 0 253.36309186 253.3630912A254.12318107 254.12318107 0 0 0 459.48537447 189.72202106z" fill="#333333" /><path d="M830.40894093 859.61403509a12.66815436 12.66815436 0 0 1-8.99439004-3.80044665L622.65120542 657.05024296a12.66815436 12.66815436 0 0 1 0-17.86209775 12.66815436 12.66815436 0 0 1 17.86209842 0L839.53001194 837.95149071a12.66815436 12.66815436 0 0 1 0 17.86209773 12.66815436 12.66815436 0 0 1-9.12107101 3.80044665z" fill="#333333" /></svg>